<mxfile host="app.diagrams.net" agent="Mozilla/5.0 (Windows NT 10.0; Win64; x64) AppleWebKit/537.36 (KHTML, like Gecko) Chrome/136.0.0.0 Safari/537.36" version="27.1.1">
  <diagram name="Page-1" id="nYuO_wfmSt75J-FKmJvT">
    <mxGraphModel dx="1426" dy="1885" grid="1" gridSize="10" guides="1" tooltips="1" connect="1" arrows="1" fold="1" page="1" pageScale="1" pageWidth="850" pageHeight="1100" math="0" shadow="0">
      <root>
        <mxCell id="0" />
        <mxCell id="1" parent="0" />
        <mxCell id="K_oDuqTqH_VFUmqTAdi2-16" style="edgeStyle=orthogonalEdgeStyle;rounded=0;orthogonalLoop=1;jettySize=auto;html=1;exitX=0.5;exitY=0.5;exitDx=0;exitDy=0;exitPerimeter=0;entryX=0;entryY=0.5;entryDx=0;entryDy=0;strokeWidth=3;" parent="1" source="K_oDuqTqH_VFUmqTAdi2-1" target="K_oDuqTqH_VFUmqTAdi2-3" edge="1">
          <mxGeometry relative="1" as="geometry">
            <Array as="points">
              <mxPoint x="180" y="420" />
              <mxPoint x="180" />
            </Array>
          </mxGeometry>
        </mxCell>
        <mxCell id="K_oDuqTqH_VFUmqTAdi2-21" style="edgeStyle=orthogonalEdgeStyle;rounded=0;orthogonalLoop=1;jettySize=auto;html=1;entryX=0;entryY=0.5;entryDx=0;entryDy=0;strokeWidth=3;" parent="1" target="K_oDuqTqH_VFUmqTAdi2-4" edge="1">
          <mxGeometry relative="1" as="geometry">
            <mxPoint x="70" y="420" as="sourcePoint" />
            <Array as="points">
              <mxPoint x="70" y="421" />
              <mxPoint x="190" y="421" />
              <mxPoint x="190" y="200" />
            </Array>
          </mxGeometry>
        </mxCell>
        <mxCell id="K_oDuqTqH_VFUmqTAdi2-25" style="edgeStyle=orthogonalEdgeStyle;rounded=0;orthogonalLoop=1;jettySize=auto;html=1;exitX=0.5;exitY=0.5;exitDx=0;exitDy=0;exitPerimeter=0;strokeWidth=3;" parent="1" source="K_oDuqTqH_VFUmqTAdi2-1" target="K_oDuqTqH_VFUmqTAdi2-6" edge="1">
          <mxGeometry relative="1" as="geometry" />
        </mxCell>
        <mxCell id="K_oDuqTqH_VFUmqTAdi2-29" style="edgeStyle=orthogonalEdgeStyle;rounded=0;orthogonalLoop=1;jettySize=auto;html=1;entryX=0;entryY=0.5;entryDx=0;entryDy=0;strokeWidth=3;" parent="1" source="K_oDuqTqH_VFUmqTAdi2-1" target="K_oDuqTqH_VFUmqTAdi2-9" edge="1">
          <mxGeometry relative="1" as="geometry">
            <Array as="points">
              <mxPoint x="190" y="420" />
              <mxPoint x="190" y="670" />
            </Array>
          </mxGeometry>
        </mxCell>
        <mxCell id="K_oDuqTqH_VFUmqTAdi2-32" style="edgeStyle=orthogonalEdgeStyle;rounded=0;orthogonalLoop=1;jettySize=auto;html=1;entryX=0;entryY=0.5;entryDx=0;entryDy=0;strokeWidth=3;" parent="1" target="K_oDuqTqH_VFUmqTAdi2-12" edge="1">
          <mxGeometry relative="1" as="geometry">
            <mxPoint x="70" y="420" as="sourcePoint" />
          </mxGeometry>
        </mxCell>
        <mxCell id="K_oDuqTqH_VFUmqTAdi2-1" value="Admin / Finance" style="shape=umlActor;verticalLabelPosition=bottom;verticalAlign=top;html=1;outlineConnect=0;" parent="1" vertex="1">
          <mxGeometry x="50" y="390" width="30" height="60" as="geometry" />
        </mxCell>
        <mxCell id="K_oDuqTqH_VFUmqTAdi2-17" style="edgeStyle=orthogonalEdgeStyle;rounded=0;orthogonalLoop=1;jettySize=auto;html=1;exitX=1;exitY=0;exitDx=0;exitDy=0;entryX=0;entryY=0.5;entryDx=0;entryDy=0;dashed=1;strokeWidth=3;" parent="1" source="K_oDuqTqH_VFUmqTAdi2-3" target="K_oDuqTqH_VFUmqTAdi2-13" edge="1">
          <mxGeometry relative="1" as="geometry" />
        </mxCell>
        <mxCell id="K_oDuqTqH_VFUmqTAdi2-19" value="&amp;lt;&amp;lt;include&amp;gt;&amp;gt;" style="edgeLabel;html=1;align=center;verticalAlign=middle;resizable=0;points=[];" parent="K_oDuqTqH_VFUmqTAdi2-17" vertex="1" connectable="0">
          <mxGeometry x="0.1139" y="1" relative="1" as="geometry">
            <mxPoint as="offset" />
          </mxGeometry>
        </mxCell>
        <mxCell id="K_oDuqTqH_VFUmqTAdi2-3" value="Login" style="ellipse;whiteSpace=wrap;html=1;strokeWidth=2;" parent="1" vertex="1">
          <mxGeometry x="280" y="-40" width="120" height="80" as="geometry" />
        </mxCell>
        <mxCell id="K_oDuqTqH_VFUmqTAdi2-24" style="edgeStyle=orthogonalEdgeStyle;rounded=0;orthogonalLoop=1;jettySize=auto;html=1;exitX=1;exitY=0.5;exitDx=0;exitDy=0;entryX=0;entryY=0.5;entryDx=0;entryDy=0;strokeWidth=3;" parent="1" source="K_oDuqTqH_VFUmqTAdi2-4" target="K_oDuqTqH_VFUmqTAdi2-5" edge="1">
          <mxGeometry relative="1" as="geometry" />
        </mxCell>
        <mxCell id="K_oDuqTqH_VFUmqTAdi2-4" value="Check Stock" style="ellipse;whiteSpace=wrap;html=1;strokeWidth=2;" parent="1" vertex="1">
          <mxGeometry x="290" y="160" width="120" height="80" as="geometry" />
        </mxCell>
        <mxCell id="K_oDuqTqH_VFUmqTAdi2-5" value="Check Stock Condition" style="ellipse;whiteSpace=wrap;html=1;strokeWidth=2;" parent="1" vertex="1">
          <mxGeometry x="510" y="160" width="120" height="80" as="geometry" />
        </mxCell>
        <mxCell id="K_oDuqTqH_VFUmqTAdi2-26" style="edgeStyle=orthogonalEdgeStyle;rounded=0;orthogonalLoop=1;jettySize=auto;html=1;exitX=1;exitY=0;exitDx=0;exitDy=0;entryX=0;entryY=0.5;entryDx=0;entryDy=0;strokeWidth=3;" parent="1" source="K_oDuqTqH_VFUmqTAdi2-6" target="K_oDuqTqH_VFUmqTAdi2-7" edge="1">
          <mxGeometry relative="1" as="geometry" />
        </mxCell>
        <mxCell id="K_oDuqTqH_VFUmqTAdi2-28" style="edgeStyle=orthogonalEdgeStyle;rounded=0;orthogonalLoop=1;jettySize=auto;html=1;exitX=1;exitY=1;exitDx=0;exitDy=0;entryX=0;entryY=0.5;entryDx=0;entryDy=0;strokeWidth=3;" parent="1" source="K_oDuqTqH_VFUmqTAdi2-6" target="K_oDuqTqH_VFUmqTAdi2-8" edge="1">
          <mxGeometry relative="1" as="geometry" />
        </mxCell>
        <mxCell id="K_oDuqTqH_VFUmqTAdi2-6" value="Review Requests" style="ellipse;whiteSpace=wrap;html=1;strokeWidth=2;" parent="1" vertex="1">
          <mxGeometry x="280" y="380" width="120" height="80" as="geometry" />
        </mxCell>
        <mxCell id="K_oDuqTqH_VFUmqTAdi2-7" value="Review requests of Service" style="ellipse;whiteSpace=wrap;html=1;strokeWidth=2;" parent="1" vertex="1">
          <mxGeometry x="510" y="270" width="120" height="80" as="geometry" />
        </mxCell>
        <mxCell id="K_oDuqTqH_VFUmqTAdi2-8" value="Review Requests of IT" style="ellipse;whiteSpace=wrap;html=1;strokeWidth=2;" parent="1" vertex="1">
          <mxGeometry x="510" y="450" width="120" height="80" as="geometry" />
        </mxCell>
        <mxCell id="K_oDuqTqH_VFUmqTAdi2-30" style="edgeStyle=orthogonalEdgeStyle;rounded=0;orthogonalLoop=1;jettySize=auto;html=1;exitX=1;exitY=0;exitDx=0;exitDy=0;entryX=0;entryY=0.5;entryDx=0;entryDy=0;strokeWidth=3;" parent="1" source="K_oDuqTqH_VFUmqTAdi2-9" target="K_oDuqTqH_VFUmqTAdi2-10" edge="1">
          <mxGeometry relative="1" as="geometry" />
        </mxCell>
        <mxCell id="K_oDuqTqH_VFUmqTAdi2-31" style="edgeStyle=orthogonalEdgeStyle;rounded=0;orthogonalLoop=1;jettySize=auto;html=1;exitX=1;exitY=1;exitDx=0;exitDy=0;entryX=0;entryY=0.5;entryDx=0;entryDy=0;strokeWidth=3;" parent="1" source="K_oDuqTqH_VFUmqTAdi2-9" target="K_oDuqTqH_VFUmqTAdi2-11" edge="1">
          <mxGeometry relative="1" as="geometry" />
        </mxCell>
        <mxCell id="K_oDuqTqH_VFUmqTAdi2-9" value="Send Notification" style="ellipse;whiteSpace=wrap;html=1;strokeWidth=2;" parent="1" vertex="1">
          <mxGeometry x="280" y="630" width="120" height="80" as="geometry" />
        </mxCell>
        <mxCell id="K_oDuqTqH_VFUmqTAdi2-10" value="Send notification to IT" style="ellipse;whiteSpace=wrap;html=1;strokeWidth=2;" parent="1" vertex="1">
          <mxGeometry x="510" y="560" width="120" height="80" as="geometry" />
        </mxCell>
        <mxCell id="K_oDuqTqH_VFUmqTAdi2-11" value="Send notification to Service&amp;nbsp;" style="ellipse;whiteSpace=wrap;html=1;strokeWidth=2;" parent="1" vertex="1">
          <mxGeometry x="510" y="720" width="120" height="80" as="geometry" />
        </mxCell>
        <mxCell id="K_oDuqTqH_VFUmqTAdi2-12" value="Logout" style="ellipse;whiteSpace=wrap;html=1;strokeWidth=2;" parent="1" vertex="1">
          <mxGeometry x="280" y="900" width="120" height="80" as="geometry" />
        </mxCell>
        <mxCell id="K_oDuqTqH_VFUmqTAdi2-13" value="Verify Password" style="ellipse;whiteSpace=wrap;html=1;strokeWidth=2;" parent="1" vertex="1">
          <mxGeometry x="510" y="-110" width="120" height="80" as="geometry" />
        </mxCell>
        <mxCell id="K_oDuqTqH_VFUmqTAdi2-14" value="Display Login Error" style="ellipse;whiteSpace=wrap;html=1;strokeWidth=2;" parent="1" vertex="1">
          <mxGeometry x="510" y="30" width="120" height="80" as="geometry" />
        </mxCell>
        <mxCell id="K_oDuqTqH_VFUmqTAdi2-18" style="edgeStyle=orthogonalEdgeStyle;rounded=0;orthogonalLoop=1;jettySize=auto;html=1;exitX=1;exitY=1;exitDx=0;exitDy=0;entryX=0;entryY=0.625;entryDx=0;entryDy=0;entryPerimeter=0;dashed=1;strokeWidth=3;" parent="1" source="K_oDuqTqH_VFUmqTAdi2-3" target="K_oDuqTqH_VFUmqTAdi2-14" edge="1">
          <mxGeometry relative="1" as="geometry">
            <Array as="points">
              <mxPoint x="382" y="40" />
              <mxPoint x="455" y="40" />
              <mxPoint x="455" y="80" />
            </Array>
          </mxGeometry>
        </mxCell>
        <mxCell id="K_oDuqTqH_VFUmqTAdi2-20" value="&amp;lt;&amp;lt;Extend&amp;gt;&amp;gt;" style="edgeLabel;html=1;align=center;verticalAlign=middle;resizable=0;points=[];" parent="K_oDuqTqH_VFUmqTAdi2-18" vertex="1" connectable="0">
          <mxGeometry x="-0.0375" y="-1" relative="1" as="geometry">
            <mxPoint as="offset" />
          </mxGeometry>
        </mxCell>
      </root>
    </mxGraphModel>
  </diagram>
</mxfile>
